<?xml version="1.0" encoding="UTF-8" standalone="no"?>
<!-- Created with Inkscape (http://www.inkscape.org/) -->

<svg
   width="70.881622mm"
   height="59.784145mm"
   viewBox="0 0 70.881622 59.784145"
   version="1.1"
   id="svg1"
   inkscape:version="1.4 (e7c3feb100, 2024-10-09)"
   sodipodi:docname="favicon.svg"
   inkscape:export-filename="favicon.png"
   inkscape:export-xdpi="91.739998"
   inkscape:export-ydpi="91.739998"
   xmlns:inkscape="http://www.inkscape.org/namespaces/inkscape"
   xmlns:sodipodi="http://sodipodi.sourceforge.net/DTD/sodipodi-0.dtd"
   xmlns="http://www.w3.org/2000/svg"
   xmlns:svg="http://www.w3.org/2000/svg">
  <sodipodi:namedview
     id="namedview1"
     pagecolor="#ffffff"
     bordercolor="#000000"
     borderopacity="0.25"
     inkscape:showpageshadow="2"
     inkscape:pageopacity="0.0"
     inkscape:pagecheckerboard="0"
     inkscape:deskcolor="#d1d1d1"
     inkscape:document-units="mm"
     inkscape:zoom="2.8284271"
     inkscape:cx="120.73848"
     inkscape:cy="78.135299"
     inkscape:window-width="1920"
     inkscape:window-height="1048"
     inkscape:window-x="0"
     inkscape:window-y="0"
     inkscape:window-maximized="1"
     inkscape:current-layer="layer1" />
  <defs
     id="defs1">
    <inkscape:path-effect
       effect="mirror_symmetry"
       start_point="79.400604,120.65271"
       end_point="79.400604,94.05645"
       center_point="79.400604,107.35458"
       id="path-effect5"
       is_visible="true"
       lpeversion="1.2"
       lpesatellites=""
       mode="free"
       discard_orig_path="false"
       fuse_paths="true"
       oposite_fuse="false"
       split_items="false"
       split_open="false"
       link_styles="false" />
    <inkscape:path-effect
       effect="mirror_symmetry"
       start_point="70.997776,107.35458"
       end_point="86.774443,107.35458"
       center_point="78.88611,107.35458"
       id="path-effect4"
       is_visible="true"
       lpeversion="1.2"
       lpesatellites=""
       mode="free"
       discard_orig_path="false"
       fuse_paths="false"
       oposite_fuse="false"
       split_items="false"
       split_open="false"
       link_styles="false" />
  </defs>
  <g
     inkscape:label="Layer 1"
     inkscape:groupmode="layer"
     id="layer1"
     transform="translate(79.188936,-92.493755)">
    <path
       id="path4-5-9"
       style="fill:#ffffff;stroke:#ffffff;stroke-width:10;stroke-dasharray:none"
       d="m -21.11388,100.44461 c 2.818084,0.0281 5.407088,1.55758 6.791774,4.01218 1.384681,2.45462 1.35466,5.46147 -0.07877,7.88794 -1.433418,2.42647 -4.05245,3.90391 -6.87054,3.87576 l -10.819039,-0.10803 c -2.818091,-0.0281 -5.407099,-1.55758 -6.791771,-4.01219 -1.384686,-2.4546 -1.354661,-5.46147 0.07876,-7.88794 1.433417,-2.42646 4.052459,-3.90389 6.870541,-3.87575 z"
       sodipodi:nodetypes="cssccsscc" />
    <path
       id="path4-2-61-5"
       style="fill:none;stroke:#ffffff;stroke-width:13.8143;stroke-linecap:round;stroke-dasharray:none"
       d="m -48.790038,117.98667 c -2.635612,0.99799 -5.603434,0.51407 -7.785522,-1.26944 -2.182087,-1.78352 -3.246921,-4.59569 -2.793386,-7.37719 0.453534,-2.7815 2.356522,-5.10976 4.992135,-6.10773 l 10.118487,-3.831394 m -4.531714,18.585754 c 2.657707,-0.93756 5.613709,-0.38602 7.754515,1.44684 2.140805,1.83286 3.141165,4.66861 2.624253,7.43903 -0.516911,2.77042 -2.472553,5.05463 -5.130261,5.99218 l -10.203312,3.59941" />
    <path
       id="path4-2-61-0-9"
       style="fill:none;stroke:#ffffff;stroke-width:13.8558;stroke-linecap:round;stroke-dasharray:none"
       d="m -38.41127,126.87254 c -2.635612,0.99799 -5.603434,0.51407 -7.785522,-1.26944 -2.182087,-1.78352 -3.246921,-4.59569 -2.793386,-7.37719 0.453534,-2.7815 2.356522,-5.10976 4.992135,-6.10773 l 10.118487,-3.83139 m -4.531714,18.58575 c 2.657707,-0.93756 5.613709,-0.38602 7.754515,1.44684 2.140805,1.83286 3.141165,4.66861 2.624253,7.43903 -0.516911,2.77042 -2.472553,5.05463 -5.130261,5.99218 L -43.366075,145.35" />
    <path
       id="path4-5"
       style="fill:none;stroke:#000000;stroke-width:4.99999;stroke-dasharray:none"
       d="m -21.113881,100.44461 c 2.818084,0.0281 5.407088,1.55758 6.791774,4.01218 1.384681,2.45462 1.35466,5.46147 -0.07877,7.88794 -1.433418,2.42647 -4.05245,3.90391 -6.87054,3.87576 l -10.819039,-0.10803 c -2.818091,-0.0281 -5.407099,-1.55758 -6.791771,-4.01219 -1.384686,-2.4546 -1.354661,-5.46147 0.07876,-7.88794 1.433417,-2.42646 4.052459,-3.90389 6.870541,-3.87575 z"
       sodipodi:nodetypes="cssccsscc" />
    <path
       id="path4-5-9-1"
       style="fill:#ffffff;stroke:#ffffff;stroke-width:10;stroke-dasharray:none"
       d="m -55.40579,128.86741 c 2.818084,0.0281 5.407088,1.55758 6.791774,4.01218 1.384681,2.45462 1.35466,5.46147 -0.07877,7.88794 -1.433418,2.42647 -4.05245,3.90391 -6.87054,3.87576 l -10.819039,-0.10803 c -2.818091,-0.0281 -5.407099,-1.55758 -6.791771,-4.01219 -1.384686,-2.4546 -1.354661,-5.46147 0.07876,-7.88794 1.433417,-2.42646 4.052459,-3.90389 6.870541,-3.87575 z"
       sodipodi:nodetypes="cssccsscc" />
    <path
       id="path4-5-2"
       style="fill:none;stroke:#000000;stroke-width:4.99999;stroke-dasharray:none"
       d="m -55.405791,128.86741 c 2.818084,0.0281 5.407088,1.55758 6.791774,4.01218 1.384681,2.45462 1.35466,5.46147 -0.07877,7.88794 -1.433418,2.42647 -4.05245,3.90391 -6.87054,3.87576 l -10.819039,-0.10803 c -2.818091,-0.0281 -5.407099,-1.55758 -6.791771,-4.01219 -1.384686,-2.4546 -1.354661,-5.46147 0.07876,-7.88794 1.433417,-2.42646 4.052459,-3.90389 6.870541,-3.87575 z"
       sodipodi:nodetypes="cssccsscc" />
    <path
       id="path4-2-61"
       style="fill:none;stroke:#000000;stroke-width:5.01501;stroke-linecap:round;stroke-dasharray:none"
       d="m -48.790038,117.98667 c -2.635612,0.99799 -5.603434,0.51407 -7.785522,-1.26944 -2.182087,-1.78352 -3.246921,-4.59569 -2.793386,-7.37719 0.453534,-2.7815 2.356522,-5.10976 4.992135,-6.10773 l 10.118487,-3.83139 m -4.531714,18.58575 c 2.657707,-0.93756 5.613709,-0.38602 7.754515,1.44684 2.140805,1.83286 3.141165,4.66861 2.624253,7.43903 -0.516911,2.77042 -2.472553,5.05463 -5.130261,5.99218 l -10.203312,3.59941" />
    <path
       id="path4-2-61-0"
       style="fill:none;stroke:#000000;stroke-width:4.99999;stroke-linecap:round;stroke-dasharray:none"
       d="m -38.41127,126.87254 c -2.635612,0.99799 -5.603434,0.51407 -7.785522,-1.26944 -2.182087,-1.78352 -3.246921,-4.59569 -2.793386,-7.37719 0.453534,-2.7815 2.356522,-5.10976 4.992135,-6.10773 l 10.118487,-3.83139 m -4.531714,18.58575 c 2.657707,-0.93756 5.613709,-0.38602 7.754515,1.44684 2.140805,1.83286 3.141165,4.66861 2.624253,7.43903 -0.516911,2.77042 -2.472553,5.05463 -5.130261,5.99218 L -43.366075,145.35" />
  </g>
</svg>
